<svg width="24" height="24" viewBox="0 0 24 24" fill="none" xmlns="http://www.w3.org/2000/svg">
<path d="M0 12V12C0 18.6274 5.37258 24 12 24V24V24C18.6274 24 24 18.6274 24 12V12V12C24 5.37258 18.6274 5.36442e-07 12 5.36442e-07V5.36442e-07V5.36442e-07C5.37258 5.36442e-07 0 5.37258 0 12V12ZM14.82 4.41C14.67 4.71 14.58 5.64 14.58 6.51C14.61 7.89 14.7 8.16 15.48 8.76C15.96 9.12 16.86 9.93 17.52 10.56C18.57 11.58 18.66 11.82 18.54 13.02C18.45 14.22 18.51 14.4 19.14 14.55C19.53 14.64 19.89 14.91 19.98 15.15C20.19 15.63 18.36 18.99 18.03 18.78C17.91 18.69 17.58 19.02 17.31 19.5C16.92 20.13 16.65 20.31 16.14 20.16C15.66 20.04 15.57 20.1 15.75 20.43C15.96 20.76 15.9 20.76 15.45 20.4C14.94 19.98 14.91 20.01 15.09 20.46C15.18 20.76 15.15 21 15 21C14.85 21 14.64 21.3 14.55 21.63C14.34 22.23 14.19 22.26 11.58 22.14C7.86 21.93 7.29 21.63 6 19.02C5.43 17.88 4.71 16.56 4.38 16.11C3.78 15.21 3.9 14.49 4.71 14.19C5.67 13.83 6 13.11 5.43 12.72C4.98 12.36 4.98 12.33 5.49 12.12C5.79 12.03 5.97 11.76 5.88 11.52C5.79 11.28 6.03 11.1 6.54 11.04C6.99 10.98 7.29 10.83 7.2 10.65V10.65C6.97209 10.2702 6.37666 10.3593 6.68963 10.0458C6.72613 10.0092 6.76628 9.9706 6.81 9.93C7.23 9.51 7.86 9.3 8.58 9.3C9.6 9.3 9.66 9.27 9.18 8.91C8.67 8.52 8.67 8.46 9.42 7.62C9.84 7.14 10.2 6.93 10.2 7.17C10.2 7.44 10.38 7.5 10.74 7.35C11.01 7.23 11.55 7.14 11.91 7.14C12.72 7.2 13.08 6.72 12.6 6.15C12.33 5.82 12.45 5.55 13.26 4.83C14.37 3.81 15.21 3.57 14.82 4.41ZM11.7 6.3C11.7 6.45 11.55 6.6 11.37 6.6C11.22 6.6 11.16 6.45 11.25 6.3C11.34 6.12 11.49 6 11.58 6C11.64 6 11.7 6.12 11.7 6.3Z" fill="url(#paint0_linear_31166_3)"/>
<path d="M14.7639 8.75323C14.4518 8.67858 14.2921 9.07875 14.3699 9.39005V9.39005C14.3999 9.54005 14.2799 9.57005 14.1299 9.48005C13.9799 9.36005 13.7699 9.42005 13.6499 9.60005C13.5599 9.75005 13.8299 9.96005 14.2499 10.08C14.8199 10.23 14.9699 10.41 14.8499 10.77C14.6999 11.13 14.7599 11.16 14.9999 10.92C15.4499 10.47 15.2699 8.94005 14.7899 8.76005C14.7812 8.75757 14.7725 8.7553 14.7639 8.75323Z" fill="url(#paint1_linear_31166_3)"/>
<path d="M9.96005 10.0799C10.0501 10.5899 10.5901 10.7099 10.7401 10.2599C10.7701 10.1099 10.6201 9.89993 10.3501 9.77993C10.0201 9.65993 9.90005 9.74993 9.96005 10.0799Z" fill="url(#paint2_linear_31166_3)"/>
<path d="M15.8999 10.44C15.8999 10.77 15.6299 11.25 15.2999 11.55C14.8499 11.97 14.7899 12.18 15.0299 12.48C15.4499 12.99 15.9299 12.75 15.7199 12.18C15.6299 11.94 15.6899 11.67 15.8699 11.55C16.0499 11.46 16.1999 11.52 16.1999 11.67C16.1999 11.85 16.3199 12 16.4699 12C16.7999 12 17.0699 10.62 16.8299 10.29C16.4699 9.80997 15.8999 9.89997 15.8999 10.44Z" fill="url(#paint3_linear_31166_3)"/>
<path d="M7.5 12.03C7.5 12.36 7.62 12.57 7.8 12.45V12.45C8.17658 12.2241 7.68564 11.1042 7.55038 11.522C7.51843 11.6207 7.5 11.79 7.5 12.03Z" fill="url(#paint4_linear_31166_3)"/>
<path d="M17.4599 11.76C16.9799 12.24 17.0099 12.54 17.5499 13.08C17.9399 13.47 17.9999 13.44 18.1799 12.75C18.4199 11.82 17.9999 11.22 17.4599 11.76Z" fill="url(#paint5_linear_31166_3)"/>
<path d="M12.3598 12C11.9998 12.15 11.5198 12.21 11.3098 12.12C11.0698 12.03 10.7098 12.18 10.4998 12.45C10.1698 12.84 10.2298 12.9 10.8898 12.9C11.3098 12.9 11.7298 12.78 11.8498 12.6C11.9398 12.42 12.2998 12.45 12.7498 12.66C13.6198 13.05 13.8898 12.9 13.6198 12.18C13.4098 11.64 13.3198 11.64 12.3598 12Z" fill="url(#paint6_linear_31166_3)"/>
<path d="M5.34011 14.52C4.50011 15.15 4.68011 15.48 6.15011 16.05C8.01011 16.74 9.00011 16.89 12.3001 16.89C15.4201 16.92 18.2101 16.44 19.0801 15.72C19.4101 15.45 19.4701 15.36 19.2601 15.45C19.0201 15.57 18.6601 15.42 18.4201 15.03C18.0001 14.46 17.9101 14.43 17.2801 14.85C16.0501 15.66 13.8301 16.17 12.0601 16.02C10.0201 15.84 7.23011 15.09 6.57011 14.52C6.00011 14.01 6.00011 14.01 5.34011 14.52Z" fill="url(#paint7_linear_31166_3)"/>
<path d="M12.36 20.85C12.36 21.33 12.42 21.51 12.51 21.21C12.5227 21.153 12.5326 21.0893 12.54 21.0223C12.5917 20.5486 12.36 20.3735 12.36 20.85V20.85Z" fill="url(#paint8_linear_31166_3)"/>
<defs>
<linearGradient id="paint0_linear_31166_3" x1="-0.5" y1="23.5" x2="23" y2="2" gradientUnits="userSpaceOnUse">
<stop offset="0.211403" stop-color="#ABABAB"/>
<stop offset="1" stop-color="#E9E6E6"/>
</linearGradient>
<linearGradient id="paint1_linear_31166_3" x1="13.5987" y1="11.0264" x2="15.6807" y2="9.70173" gradientUnits="userSpaceOnUse">
<stop offset="0.211403" stop-color="#ABABAB"/>
<stop offset="1" stop-color="#E9E6E6"/>
</linearGradient>
<linearGradient id="paint2_linear_31166_3" x1="9.92855" y1="10.5218" x2="10.7201" y2="9.80723" gradientUnits="userSpaceOnUse">
<stop offset="0.211403" stop-color="#ABABAB"/>
<stop offset="1" stop-color="#E9E6E6"/>
</linearGradient>
<linearGradient id="paint3_linear_31166_3" x1="14.8489" y1="12.7016" x2="17.3751" y2="11.0149" gradientUnits="userSpaceOnUse">
<stop offset="0.211403" stop-color="#ABABAB"/>
<stop offset="1" stop-color="#E9E6E6"/>
</linearGradient>
<linearGradient id="paint4_linear_31166_3" x1="7.49055" y1="12.4619" x2="8.19927" y2="12.1858" gradientUnits="userSpaceOnUse">
<stop offset="0.211403" stop-color="#ABABAB"/>
<stop offset="1" stop-color="#E9E6E6"/>
</linearGradient>
<linearGradient id="paint5_linear_31166_3" x1="17.0976" y1="13.2944" x2="18.6142" y2="12.4129" gradientUnits="userSpaceOnUse">
<stop offset="0.211403" stop-color="#ABABAB"/>
<stop offset="1" stop-color="#E9E6E6"/>
</linearGradient>
<linearGradient id="paint6_linear_31166_3" x1="10.2329" y1="12.876" x2="10.9667" y2="10.8834" gradientUnits="userSpaceOnUse">
<stop offset="0.211403" stop-color="#ABABAB"/>
<stop offset="1" stop-color="#E9E6E6"/>
</linearGradient>
<linearGradient id="paint7_linear_31166_3" x1="4.53575" y1="16.8339" x2="5.61026" y2="11.642" gradientUnits="userSpaceOnUse">
<stop offset="0.211403" stop-color="#ABABAB"/>
<stop offset="1" stop-color="#E9E6E6"/>
</linearGradient>
<linearGradient id="paint8_linear_31166_3" x1="12.3559" y1="21.3336" x2="12.6979" y2="21.2786" gradientUnits="userSpaceOnUse">
<stop offset="0.211403" stop-color="#ABABAB"/>
<stop offset="1" stop-color="#E9E6E6"/>
</linearGradient>
</defs>
</svg>
